# xmcd
#
# Track frame offsets:
#	150
#	25023
#	51085
#	75143
#	91190
#	115290
#	137470
#	162068
#	189995
#	215290
#	241735
#	262138
#
# Disc length: 3764 seconds
#
# Revision: 3
# Processed by: cddbd v1.5.2PL0 Copyright (c) Steve Scherf et al.
# Submitted via: EZCDAudioConverter 8.0.2.1
#
DISCID=890eb20c
DTITLE=Various Artist - 12 Nhạc Phẩm Về Tình Yêu. Tình..!
DYEAR=1991
DGENRE=Pop
TTITLE0=Duy Quang - Tình điên
TTITLE1=Thái Hiền - Tình sầu
TTITLE2=Tuấn Ngọc - Tình phụ
TTITLE3=Minh Xuân - Tình đầu
TTITLE4=Minh Phúc - Tình muộn
TTITLE5=Thái Thảo - Tình xanh
TTITLE6=Thiên Phượng - Tình nhớ
TTITLE7=Minh Xuân - Tình
TTITLE8=Duy Quang - Tình bơ vơ
TTITLE9=Thái Hiền - Tình xa
TTITLE10=Tuấn Ngọc - Tình hờ
TTITLE11=Thái Thảo - Tình lỡ
EXTD=
EXTT0=
EXTT1=
EXTT2=
EXTT3=
EXTT4=
EXTT5=
EXTT6=
EXTT7=
EXTT8=
EXTT9=
EXTT10=
EXTT11=
PLAYORDER=
